<?xml version="1.0" encoding="utf-8"?>
<!-- Generator: Adobe Illustrator 16.0.0, SVG Export Plug-In . SVG Version: 6.00 Build 0)  -->
<!DOCTYPE svg PUBLIC "-//W3C//DTD SVG 1.1//EN" "http://www.w3.org/Graphics/SVG/1.1/DTD/svg11.dtd">
<svg version="1.1" id="Layer_1" xmlns="http://www.w3.org/2000/svg" xmlns:xlink="http://www.w3.org/1999/xlink" x="0px" y="0px"
	 width="135px" height="135px" viewBox="0 0 135 135" enable-background="new 0 0 135 135" xml:space="preserve">
<polygon display="none" fill="#727272" points="108,31.5 99,31.5 90,31.5 81,31.5 81,22.5 72,22.5 63,22.5 54,22.5 45,22.5 45,31.5 
	45,40.5 45,49.5 45,58.5 45,67.5 36,67.5 27,67.5 27,76.5 18,76.5 18,85.5 18,94.5 27,94.5 27,103.5 36,103.5 45,103.5 54,103.5 
	54,94.5 63,94.5 63,85.5 63,76.5 63,67.5 63,58.5 63,49.5 63,40.5 72,40.5 81,40.5 81,49.5 90,49.5 99,49.5 99,58.5 99,67.5 
	99,76.5 90,76.5 81,76.5 81,85.5 72,85.5 72,94.5 72,103.5 81,103.5 81,112.5 90,112.5 99,112.5 108,112.5 108,103.5 117,103.5 
	117,94.5 117,85.5 117,76.5 117,67.5 117,58.5 117,49.5 117,40.5 117,31.5 "/>
<g display="none">
	<g display="inline">
		<polygon fill="#5A5A5A" points="27.699,58.971 67.5,19.17 107.301,58.971 107.301,115.83 27.699,115.83 		"/>
	</g>
</g>
<g transform="translate(0,-952.36218)">
	<path fill="#BBBBBB" d="M38.605,1028.251l5.127,5.127c2.831-2.831,7.421-2.832,10.253,0c2.831,2.831,2.83,7.421-0.001,10.252
		l5.127,5.127l24.7-24.7l-20.506-20.506L38.605,1028.251z M65.17,1001.686l20.506,20.506l10.719-10.719l-5.127-5.127
		c-2.831,2.831-7.419,2.831-10.251,0c-2.832-2.832-2.832-7.42-0.001-10.251l-5.127-5.127L65.17,1001.686z"/>
</g>
<path display="none" fill="#5A5A5A" d="M45.217,36.305V82.65c-2.228-1.334-4.457-1.781-6.684-1.781
	c-8.468,0-15.599,7.131-15.599,15.598s7.131,15.598,15.599,15.598c8.466,0,15.597-7.131,15.597-15.598V54.131l49.021-8.913V77.75
	c-2.228-0.891-4.456-1.783-6.685-1.783c-8.468,0-15.597,7.131-15.597,15.598c0,8.469,7.129,15.598,15.597,15.598
	s15.599-7.129,15.599-15.598V22.935L45.217,36.305z"/>
<circle fill="none" stroke="#BBBBBB" stroke-miterlimit="10" cx="67.5" cy="67.5" r="45.166"/>
</svg>
